<svg xmlns="http://www.w3.org/2000/svg" xml:space="preserve" width="450" height="100" style="shape-rendering:geometricPrecision;text-rendering:geometricPrecision;image-rendering:optimizeQuality;fill-rule:evenodd;clip-rule:evenodd"><defs><style>.fil0,.fil1{fill:#d3d3d3;fill-rule:nonzero}.fil1{fill:tomato}</style></defs><g id="Layer_x0020_1"><g id="_2253533543648"><path class="fil0" d="M335.78 43.81a.938.938 0 0 0-.23-.48c-.16-.22-.42-.37-.77-.37-.73 0-1.46-.14-2.04-.47-.36-.21-.68-.47-.95-.78-1.32 1.6-2.8 3.04-4.44 4.31-.02.76-.13 1.51-.35 2.23-.17.55-.4 1.1-.69 1.6a8.452 8.452 0 0 1-4.56 3.84c-.84.29-1.73.46-2.62.47H319c-.72 0-1.44-.1-2.14-.29-.16.08-.31.16-.46.24-.42.21-.83.44-1.27.73-.18.12-.3.25-.38.45-.11.27-.26.61-.49.94-.4.57-1 .89-1.69.91-.52.01-.96-.09-1.37-.3-.21.21-.43.42-.64.64l-.5.49c-.31.31-.84.55-1.39.58l-.32.33c.06.06.13.11.19.16.4.29.95.24 1.28-.13 1.07-1.15 2.75-1.53 4.17-.93 1.22.5 2.07 1.59 2.27 2.86.01.03.01.05.01.07.02.12.02.24.03.37.01.09.01.19.01.29 0 .35.18.65.46.82.11.09.24.16.38.18 1.27.14 2.57.14 3.85 0 .47-.08.85-.53.82-1.01l-.03-.2v-.01c0-.64.18-1.27.51-1.81-.01-.01-.02-.03-.03-.03.4-.72 1.02-1.3 1.8-1.62 1.4-.6 3.21-.17 4.2.92.35.38.9.42 1.29.1.98-.77 1.88-1.7 2.66-2.7.33-.37.27-.92-.1-1.25-1.16-1.07-1.53-2.75-.92-4.18a3.683 3.683 0 0 1 3.03-2.29c.07-.01.14-.02.22-.02.12 0 .25-.02.38-.01.5 0 .92-.36.97-.85.08-.6.1-1.23.1-1.85 0-.65-.02-1.31-.12-1.95zm-26.88 6.56.08-.04c.14-.07.27-.13.42-.18.28-.11.5-.3.68-.61.3-.5.58-1 .84-1.53a7.4 7.4 0 0 1-.27-1.34v-.03c-.23-2.13.39-4.29 1.69-5.99 1.29-1.68 3.26-2.81 5.35-3.14.39-.07.78-.1 1.16-.11 1.27-1.62 2.69-3.08 4.26-4.37-.89-.71-1.41-1.8-1.39-2.91 0-.15-.04-.31-.1-.46a.939.939 0 0 0-.35-.5c-.02-.02-.04-.03-.07-.05a.69.69 0 0 0-.23-.08c-.02-.01-.04-.03-.07-.03h-.03c-.02 0-.03-.02-.05-.02-1.25-.15-2.53-.13-3.8 0-.48.08-.85.5-.82 1 .01.18 0 .36-.02.54a3.95 3.95 0 0 1-.46 1.48v.01c-.4.71-1.02 1.29-1.8 1.62-1.4.6-3.21.18-4.21-.93a.947.947 0 0 0-1.29-.11c-.98.79-1.88 1.69-2.69 2.69-.29.4-.24.95.13 1.28 1.16 1.07 1.53 2.74.93 4.17a3.76 3.76 0 0 1-3.47 2.32c-.5 0-1.06.35-1.11.83-.15 1.28-.15 2.58 0 3.85.04.25.17.46.35.61.19.16.42.25.68.24a3.492 3.492 0 0 1 2 .46c.73.39 1.32 1.02 1.66 1.82.59 1.4.17 3.2-.94 4.2a.96.96 0 0 0-.11 1.3c.03.04.05.07.09.11l.33-.33c.04-.55.27-1.08.58-1.38l.48-.48.67-.67c-.19-.37-.29-.77-.29-1.21-.02-1.26.74-1.81 1.19-2.03z"/><path class="fil1" d="M330.34 38.58c.42-.42.53-.9.42-1.42-.36-1.6-1.41-2.58-2.93-3.06-.62-.2-1.17-.06-1.67.45-1.98 2.02-3.99 4.01-5.99 6-.31.32-.55.34-.93.09-.27-.18-.43-.45-.59-.77-1.3 1.31-2.58 2.59-3.87 3.87-.23.23-.42.49-.58.77-.44.81-.83 1.65-1.24 2.47-.54 1.11-1.06 2.22-1.69 3.27-.34.56-.78.96-1.39 1.19-.13.05-.25.11-.38.17-.32.16-.42.42-.41.77 0 .51.25.87.62 1.17.13.11.12.18 0 .3-.63.62-1.26 1.26-1.89 1.89-.15.15-.26.66-.12.82.13.15.04.2-.05.28-.18.19-.37.38-.56.56l-.07-.07-1.52 1.52-1.82-1.82a.14.14 0 0 0-.19 0c-.06.06-.06.14 0 .2l4.15 4.15c.06.06.14.06.2 0a.14.14 0 0 0 0-.19l-1.88-1.88 1.52-1.52-.06-.06c.18-.19.37-.38.56-.56.08-.09.13-.18.28-.05.16.14.67.03.82-.12.61-.61 1.22-1.2 1.81-1.82.18-.19.29-.21.45 0 .3.39.68.6 1.19.58.26 0 .45-.11.6-.32.15-.21.25-.45.35-.68.19-.46.49-.81.9-1.08.46-.29.92-.56 1.4-.8 1.47-.74 2.95-1.47 4.42-2.21.23-.11.46-.23.64-.41 1.37-1.36 2.73-2.72 4.1-4.1-.45-.2-.77-.5-.9-.99-.04-.18-.01-.29.12-.42 2.06-2.06 4.11-4.12 6.18-6.17zm-.18-.5c-.33.37-.67.74-1.07 1.05-.01.02-.04.02-.07.02-.08-.01-.15-.04-.18-.12-.04-.08-.04-.17.03-.24.32-.32.65-.65.98-.97.07-.07.17-.06.25.01.09.06.12.18.06.25zm-.29-1.03c.01.09-.05.14-.12.21l-1.14 1.14c-.11.11-.23.17-.35.06-.15-.14-.07-.26.05-.37.38-.38.76-.76 1.14-1.15.09-.08.18-.13.3-.08.07.03.12.09.12.19zm-.31-.96c0 .11-.05.16-.11.22l-1.47 1.47c-.11.1-.22.17-.35.05-.14-.13-.07-.24.03-.35.5-.5 1-.99 1.49-1.49.08-.07.16-.14.27-.08.09.04.14.1.14.18zm-1.69-1.12c.07.04.11.1.11.18 0 .1-.05.17-.11.23-.39.38-.77.76-1.15 1.14-.1.11-.22.18-.35.05-.12-.12-.07-.24.04-.35.4-.39.79-.79 1.18-1.18.08-.08.17-.12.28-.07zm-2.1.63.88-.88c.09-.09.18-.11.28-.06.07.04.12.1.11.19.01.09-.05.14-.11.2-.28.28-.56.56-.84.85-.12.11-.24.16-.36.04-.11-.12-.06-.24.04-.34zm1.18 1.55c-.05-.1-.02-.2.06-.28l.78-.78c.25-.24.49-.48.73-.73.1-.1.21-.15.33-.04.14.12.09.24-.03.35-.49.5-.99.99-1.49 1.49-.05.05-.1.11-.19.11s-.15-.05-.19-.12z"/><path class="fil1" d="M332.58 34.3c-.77-.71-1.49-1.47-2.22-2.21-.54-.56-1.2-.72-1.95-.6-.88.15-1.66.56-2.39 1.06-2.69 1.83-4.97 4.09-6.86 6.74-.22.3-.22.39.01.69.08.11.19.19.31.27.17.11.29.1.46-.06 2.05-2.07 4.11-4.11 6.16-6.18.48-.49 1.04-.61 1.66-.45 1.15.28 2.02.99 2.74 1.91.46.58.76 1.23.76 1.99.01.53-.15.97-.55 1.37-2.01 1.98-4 3.99-6 5.98-.29.29-.29.43 0 .74s.51.33.85.09a27.32 27.32 0 0 0 6.34-6.31c.55-.77 1.07-1.56 1.33-2.49.27-.97.14-1.82-.65-2.54z"/><path class="fil0" d="M300.42 58.23h-5.81V43.05l-10.34 14.76-10.35-14.76v15.18h-5.81V33.32h6.1l10.06 14.38 10.1-14.38h6.05zM362.3 50.34c0 2.24-.78 4.12-2.36 5.65-1.54 1.49-3.44 2.24-5.71 2.24h-16.65V33.32h16.65c2.23 0 4.14.76 5.71 2.29 1.58 1.54 2.36 3.41 2.36 5.6v9.13zm-18.91-11.21v13.29h10.84c1.48 0 2.22-.69 2.22-2.08v-9.13c0-1.39-.74-2.08-2.22-2.08h-10.84z"/><path class="fil1" d="M378.77 35.6c-1.57-1.51-3.48-2.28-5.72-2.28h-12.09c.31.24.62.51.92.8 1.48 1.44 2.41 3.12 2.79 5.01h8.38c1.48 0 2.23.69 2.23 2.08v9.14c0 1.38-.75 2.07-2.23 2.07h-8.37c-.38 1.93-1.32 3.64-2.8 5.07-.28.26-.56.52-.86.74h12.03c2.28 0 4.18-.74 5.72-2.24 1.57-1.53 2.37-3.41 2.37-5.64v-9.14c0-2.2-.8-4.06-2.37-5.61zM389.35 58.23h-5.81V33.32h5.81zM418.3 58.23h-5.78l-14.95-16.79v16.79h-5.81V33.32h5.81l14.95 16.65V33.32h5.78zM448.08 58.23h-19.25c-2.26 0-4.18-.75-5.74-2.24-1.59-1.51-2.38-3.39-2.38-5.65v-9.13c0-2.22.79-4.1 2.38-5.62 1.58-1.52 3.49-2.27 5.74-2.27h19.25v5.81h-19.25c-1.54 0-2.31.69-2.31 2.08v9.13c0 1.39.77 2.08 2.31 2.08h13.44v-3.78h-7.86v-5.78h13.67v15.37z"/><path class="fil0" d="M390.03 80.78h-12.51c-1.48 0-2.72-.48-3.74-1.46-1.03-.98-1.55-2.2-1.55-3.67v-5.94c0-1.44.52-2.66 1.55-3.66 1.03-.98 2.27-1.47 3.74-1.47h12.51v3.78h-12.51c-1.01 0-1.51.45-1.51 1.35v5.94c0 .9.5 1.35 1.51 1.35h12.51v3.78zM410.89 80.78h-3.77v-5.16h-12.3v5.16h-3.78V69.59c0-1.37.43-2.54 1.27-3.5.86-1.01 1.97-1.51 3.3-1.51h10.68c1.34 0 2.44.5 3.32 1.51.85.96 1.28 2.13 1.28 3.5v11.19zm-16.07-8.94h12.3v-2.25c0-.82-.27-1.23-.83-1.23h-10.68c-.53 0-.79.41-.79 1.23v2.25zM429.71 68.36h-13.48v2.43h12.64v3.76h-12.64v6.23h-3.78v-16.2h17.26zM448.08 68.36h-13.49v2.43h12.61v3.76h-12.61V77h13.49v3.78h-17.26v-16.2h17.26z"/><g><path class="fil1" d="m277.31 64.58-9.2 9.2v-9.2zM293.24 64.58l-16.2 16.2h-8.93v-.74l15.45-15.46zM309.16 64.58l-16.19 16.2h-9.6l-.04-.03 16.17-16.17zM325.1 64.58l-16.2 16.2h-9.61l-.03-.03 16.17-16.17zM341.02 64.58l-16.19 16.2h-9.61l-.03-.03 16.17-16.17zM356.96 64.58l-16.2 16.2h-9.61l-.03-.03 16.17-16.17zM369.07 64.58v3.81l-12.38 12.39h-9.61l-.03-.03 16.16-16.17zM362.98 80.75l6.09-6.09v6.12h-6.06z"/><path class="fil1" d="m277.31 64.58-9.2 9.2v-9.2zM293.24 64.58l-16.2 16.2h-8.93v-.74l15.45-15.46zM309.16 64.58l-16.19 16.2h-9.6l-.04-.03 16.17-16.17zM325.1 64.58l-16.2 16.2h-9.61l-.03-.03 16.17-16.17zM341.02 64.58l-16.19 16.2h-9.61l-.03-.03 16.17-16.17zM356.96 64.58l-16.2 16.2h-9.61l-.03-.03 16.17-16.17zM369.07 64.58v3.81l-12.38 12.39h-9.61l-.03-.03 16.16-16.17zM369.07 74.66v6.12h-6.06l-.03-.03z"/></g></g></g><g id="Layer_x0020_1_0"><g id="_2364225341552"><path class="fil1" d="m191.13 33.93.64-3.05h-12.29c-2.51 0-4.52 1.4-4.95 3.44l-3.91 18.61h8.35l4-19h8.16zm-29.86 9.82h-4.52l2.06-9.82h4.52l-2.06 9.82zm6.42 9.18.64-3.04h-12.87l.63-3.01h12.87l2.65-12.56c.42-2.04-1-3.44-3.51-3.44h-12.78c-2.5 0-4.52 1.4-4.95 3.44l-3.91 18.61h21.23zm-31.97-3.04h-4.52l3.36-15.96h4.52l-3.36 15.96zm7.72 3.04 3.91-18.61c.43-2.04-1-3.44-3.5-3.44h-8.65l1.16-5.53h-8.35l-5.81 27.58h21.24zm-24.21 0 3.92-18.61c.42-2.04-1-3.44-3.51-3.44H89.76l-4.64 22.05h8.36l4-19H102l-4 19h8.36l3.99-19h4.52l-3.99 19h8.35zM75.69 40.87h-5.7l2.53-12.03h5.7l-2.53 12.03zm6.51 12.06 4.89-23.26c.55-2.6-1.25-4.32-4.4-4.32H69.52c-3.14 0-5.67 1.72-6.22 4.32l-4.89 23.26h9.04l1.82-8.62h5.7l-1.81 8.62h9.04z"/><path class="fil1" d="M187.25 44.75c4.79-4.39 7.69-6.76 13.94-8.49-1.77 2.43-2.11 4.36-3.03 7.27l5.48-7.9c4-.59 6.82 1.32 10.69 2.42-1.94 4.9-2.82 6.98-1.07 11.72-1.9 2.11-3.63 3.68-5.58 4.72-1.99 1.06-4.24 1.58-7.21 1.58H14.77c-2.98 0-5.21.51-7.16 1.6-1.94 1.08-3.56 2.7-5.34 4.94-.24.29-.19.73.1.97.3.24.73.19.96-.11 1.68-2.09 3.18-3.61 4.94-4.59 1.74-.97 3.76-1.42 6.5-1.42h185.7c3.21 0 5.66-.58 7.84-1.74 2.1-1.12 3.93-2.77 5.92-4.97 2.83 1.02 5.33.58 8.39.28-.4 7.58-1.64 8.98-8.94 11.7 9.63-1.26 10.8-4.19 10.86-13.52 3.64-3.2 6.61-7.93 9.36-11.96-3.78-3.88-7.36-4.47-12.51-5.57 3.24-1.52 5.66-2.41 8.24-4.97.25-.62.27-.5.14-1.16-3.97-8.21-9.39-11.15-17.66-14.14 7.52 4.49 10.51 6.5 15.49 13.83-3.31 1.31-4.5 2.09-6.97 4.68l-1.01-.79c2.13-1.68 2.96-2.37 3.88-4.97-2.21-2.6-3.58-3.3-6.51-4.69-.09-1.58.11-2.34-.69-3.83-7.11-4.23-10.57-4.43-18.73-4.55 6.29 1.41 12.27 2.28 17.06 6.32.18.29.32.89.09 1.58-1.04-.11-2.01-.14-4.13.51 1.98.2 2.2.16 4.08.85-.07 1.91-.41 3.61-.65 5.45l-.79.03-1.04-4.57c-7.64 1.29-9.92 5.48-13.61 11.9 3.89-3.96 7.52-6.78 12.37-9.46l.96 6.99c-2.15-.8-3.81-1.43-6.05-1.93-1.47 1.77-2.16 2.97-3.32 4.97-7.18 1.86-10.82 4.54-15.29 11.02zm34.14-19.63-3.46 3.44-2.11-.74c.67-2.09.84-4.35 1.06-6.49 2.08 1.16 3 1.63 4.51 3.79zm-7.54 9.63c-.3.27-.6.53-.9.8-2.76-1.27-4.35-1.84-7.28-2.62.3-.58.6-1.17.9-1.76 3.46 1.07 4.91.84 7.28 3.58zm14.26 7.1c-.84-2.97-.38-2.9-2.25-6.45l5.62 2.22c-1.85 1.35-2.15 2.23-3.37 4.23z"/><path class="fil0" d="m218.45 81.8 3.27-15.55c.36-1.7-.83-2.88-2.92-2.88h-7.23l.97-4.62h-6.98l-4.85 23.05h6.98l3.34-15.88h3.78l-3.34 15.88h6.98zm-20.18 0 .53-2.55h-6.81l2.8-13.33h6.82l.53-2.55h-10.26c-2.1 0-3.78 1.18-4.14 2.88l-3.27 15.55h13.8zm-22.69-2.55h-3.78l1.73-8.2h3.78l-1.73 8.2zm6.45 2.55 3.27-15.55c.35-1.7-.83-2.88-2.93-2.88h-10.72l-.53 2.55h7.27l-.54 2.55h-7.23c-2.09 0-3.78 1.17-4.14 2.87L164.87 79c-.15.71.01 1.38.46 1.94.46.56 1.07.86 1.79.86h14.91zm-20.27 0 3.27-15.55c.36-1.7-.83-2.88-2.93-2.88h-7.22l.97-4.62h-6.98l-4.85 23.05H151l3.34-15.88h3.78l-3.34 15.88h6.98zm-26.71-2.55h-3.78l2.8-13.33h3.78l-2.8 13.33zm6.44 2.55 3.27-15.55c.36-1.7-.83-2.88-2.92-2.88h-14.21l-4.85 23.05h6.98l.97-4.62h10.76zm-26.71-2.55H111l2.8-13.33h3.78l-2.8 13.33zm6.83.71 2.89-13.71c.35-1.7-.84-2.88-2.93-2.88h-10.68c-2.09 0-3.78 1.18-4.14 2.88L104.07 79c-.15.71.01 1.38.46 1.94s1.07.86 1.79.86h13.05c1.09 0 2.01-.75 2.24-1.84zm-20.65 1.84 3.27-15.55c.36-1.7-.83-2.88-2.93-2.88h-7.23l.98-4.62h-6.99L83.22 81.8h6.98l3.34-15.88h3.78L93.98 81.8h6.98zm-20.27 0 3.27-15.55c.36-1.7-.83-2.88-2.93-2.88H66.82L62.95 81.8h6.98l3.34-15.88h3.78L73.71 81.8h6.98zm-25.63-7.67h-3.78L53 65.92h3.78l-1.72 8.21zm5.36 7.67.54-2.55H50.2l.53-2.51h10.76l2.2-10.49c.36-1.7-.83-2.88-2.92-2.88H50.09c-2.09 0-3.78 1.18-4.14 2.88L43.27 79c-.15.71.01 1.38.46 1.94s1.07.86 1.78.86h14.91zm-20.26 0 3.27-15.55c.35-1.7-.84-2.88-2.93-2.88h-7.23l.97-4.62h-6.98L22.42 81.8h6.98l3.34-15.88h3.77L33.17 81.8h6.99zm-20.27 0 3.27-15.55c.36-1.7-.83-2.88-2.93-2.88H6.02L2.15 81.8h6.98l3.34-15.88h3.78L12.91 81.8h6.98z"/></g></g></svg>