<?xml version="1.0" encoding="UTF-8"?>
<!DOCTYPE svg PUBLIC "-//W3C//DTD SVG 1.1//EN" "http://www.w3.org/Graphics/SVG/1.1/DTD/svg11.dtd">
<!-- Creator: CorelDRAW 2019 (64-Bit) -->
<svg xmlns="http://www.w3.org/2000/svg" xml:space="preserve" width="1000px" height="1000px" version="1.1" style="shape-rendering:geometricPrecision; text-rendering:geometricPrecision; image-rendering:optimizeQuality; fill-rule:evenodd; clip-rule:evenodd"
viewBox="0 0 1000 1000"
 xmlns:xlink="http://www.w3.org/1999/xlink">
 <defs>
  <style type="text/css">
   <![CDATA[
    .fil0 {fill:#F1613A;fill-rule:nonzero}
   ]]>
  </style>
 </defs>
 <g id="Layer_x0020_1">
  <metadata id="CorelCorpID_0Corel-Layer"/>
  <path class="fil0" d="M661.27 980.77c85.1,-3.37 183.57,-47.86 206.14,-112.55 18.62,30.81 -20.75,59.63 -61.69,101.04 105.61,-59.07 152.61,-69.63 97.96,-154.22 61.9,-122.42 106.18,-282.62 78.23,-410.51 -140.41,-61.96 -189.45,-52.97 -336.32,-27.51 69.13,-74.31 123.21,-123.28 163.99,-217.57 0.05,-19.15 1.97,-16.19 -8.6,-32.07 -91.86,-115.83 -208.08,-121.79 -348.29,-84.63 130.78,29.11 164.8,8.16 288.1,99.29 -72.97,69.5 -96.2,102.68 -133.75,196.74l-34.98 -10.21c38.39,-66.62 52.88,-93.41 49.47,-171.54 -85.43,-44.97 -128.65,-48.96 -220.49,-54.44 -18.95,-40.68 4.74,-34.94 -32.06,-65.67 -202.66,18.27 -304.17,85.39 -358.88,173.69 114.44,-72.25 205.49,-116.11 321,-119.02 7.9,5.81 4.15,1.9 5.31,22.26 -28.3,8.19 -54.23,17.48 -103.17,57.09 54.34,-15.58 59.51,-19.05 116.14,-20.64 18.39,50.7 27.43,98.91 40.56,150.07l-20.39 9.06 -75.62 -109.15c-187.17,114.46 -202.76,248.56 -231.94,456.34 60.24,-145.17 125.93,-257.6 225.22,-379.11 32.97,57.82 65.93,115.64 98.9,173.46 -64.78,1.76 -115.25,2.77 -179.24,13.1 -20.07,62.13 -25.62,100.89 -34.71,165.61 -144.9,75.3 -118.5,176.25 -17.16,281.88 -12.99,-83.27 -73.28,-137.83 8.38,-201.23 -20.95,82.75 25.12,162.91 64.51,227.55 3.56,-93.08 -41.37,-149.03 10.69,-279.25 84.17,-37.65 175.46,-27.99 288.73,-39.94 0.94,149.28 17.86,277.71 133.96,362.08zm-84.95 -776.1l-54.6 126.8 -63.2 2.87c-4.48,-62.1 -23.77,-123.14 -40.59,-181.63 66.66,8.36 95.91,11.15 158.39,51.96zm-96.36 332.51c-5.08,10.13 -10.17,20.26 -15.24,30.4 -85.96,-3.99 -132.39,11.41 -217.71,21.89 1.69,-18.58 2.13,-50.81 3.81,-69.4 102.36,-8.51 137.96,-29.75 229.14,17.11zm449.55 36c-53.56,-69.31 -40.38,-72.16 -127.18,-145.62l121.94 19.84c10.07,38.69 16.23,60.25 5.24,125.78z"/>
 </g>
</svg>
