<?xml version="1.0" encoding="UTF-8"?>
<!DOCTYPE svg PUBLIC "-//W3C//DTD SVG 1.1//EN" "http://www.w3.org/Graphics/SVG/1.1/DTD/svg11.dtd">
<!-- Creator: CorelDRAW 2019 (64-Bit) -->
<svg xmlns="http://www.w3.org/2000/svg" xml:space="preserve" width="52.1546mm" height="16.9332mm" version="1.1" style="shape-rendering:geometricPrecision; text-rendering:geometricPrecision; image-rendering:optimizeQuality; fill-rule:evenodd; clip-rule:evenodd"
viewBox="0 0 5215.46 1693.32"
 xmlns:xlink="http://www.w3.org/1999/xlink">
 <defs>
  <style type="text/css">
   <![CDATA[
    .fil1 {fill:lightgrey;fill-rule:nonzero}
    .fil0 {fill:tomato;fill-rule:nonzero}
   ]]>
  </style>
 </defs>
 <g id="Layer_x0020_1">
  <metadata id="CorelCorpID_0Corel-Layer"/>
  <g id="_2364225341552">
   <path class="fil0" d="M4251.35 513.31l14.41 -68.49 -276.2 0c-56.34,0 -101.64,31.54 -111.28,77.35l-87.99 418.33 187.82 0 89.85 -427.19 183.39 0zm-671.19 220.8l-101.64 0 46.44 -220.8 101.64 0 -46.44 220.8zm144.4 206.39l14.4 -68.49 -289.45 0 14.22 -67.6 289.45 0 59.37 -282.24c9.63,-45.81 -22.4,-77.35 -78.74,-77.35l-287.25 0c-56.34,0 -101.64,31.54 -111.28,77.35l-87.99 418.33 477.27 0zm-718.63 -68.49l-101.63 0 75.44 -358.7 101.64 0 -75.45 358.7zm173.41 68.49l88 -418.33c9.63,-45.81 -22.4,-77.35 -78.75,-77.35l-194.44 0 26.16 -124.38 -187.81 0 -130.43 620.06 477.27 0zm-544.1 0l87.98 -418.33c9.64,-45.81 -22.39,-77.35 -78.74,-77.35l-671.7 0 -104.27 495.68 187.81 0 89.86 -427.19 101.64 0 -89.85 427.19 187.81 0 89.86 -427.19 101.64 0 -89.86 427.19 187.82 0zm-978.68 -271.27l-128.17 0 56.87 -270.37 128.16 0 -56.86 270.37zm146.22 271.27l109.98 -522.87c12.29,-58.43 -28.18,-97.19 -98.88,-97.19l-296.08 0c-70.71,0 -127.47,38.76 -139.76,97.19l-109.98 522.87 203.28 0 40.75 -193.77 128.16 0 -40.75 193.77 203.28 0z"/>
   <path class="fil0" d="M4164.12 756.52c107.72,-98.6 173.03,-151.85 313.55,-190.9 -39.93,54.75 -47.64,98.13 -68.27,163.45l123.27 -177.48c89.81,-13.32 153.23,29.53 240.21,54.27 -43.5,110.24 -63.4,157.01 -23.91,263.59 -42.81,47.4 -81.61,82.74 -125.62,106.15 -44.54,23.7 -95.16,35.41 -161.87,35.41l-4174.31 0c-67.03,0 -117.2,11.58 -161.07,36.01 -43.53,24.25 -79.99,60.76 -120.11,110.95 -5.31,6.69 -4.27,16.47 2.36,21.85 6.62,5.37 16.31,4.31 21.63,-2.38 37.67,-47.13 71.48,-81.18 110.94,-103.16 39.12,-21.79 84.66,-32.11 146.25,-32.11l4174.31 0c71.94,0 127.08,-12.92 176.21,-39.06 47.18,-25.1 88.15,-62.16 132.89,-111.56 63.69,22.71 119.9,12.89 188.78,6.06 -9.16,170.59 -36.94,202.07 -201.02,263.03 216.4,-28.14 242.68,-94.04 244.01,-303.89 81.84,-71.86 148.79,-178.25 210.51,-268.77 -85.09,-87.22 -165.57,-100.41 -281.31,-125.13 72.93,-34.28 127.26,-54.35 185.22,-111.73 5.71,-14.09 6.25,-11.34 3.16,-26.17 -89.13,-184.5 -211.04,-250.53 -396.99,-317.93 169.05,101.13 236.34,146.18 348.31,310.91 -74.32,29.6 -101.26,47.16 -156.77,105.34l-22.75 -17.89c48.01,-37.71 66.61,-53.15 87.23,-111.71 -49.62,-58.42 -80.27,-74.16 -146.31,-105.38 -1.91,-35.58 2.49,-52.62 -15.52,-86.15 -159.79,-95.07 -237.45,-99.42 -421.01,-102.14 141.41,31.6 275.84,51.14 383.58,142.02 4.09,6.61 7.19,20.09 2.01,35.43 -23.27,-2.35 -45.12,-3.18 -92.9,11.52 44.65,4.6 49.48,3.58 91.67,19.17 -1.47,42.79 -9.08,80.98 -14.56,122.56l-17.69 0.63 -23.39 -102.79c-171.77,28.91 -222.95,123.08 -305.96,267.5 87.36,-89.11 169.03,-152.48 278.14,-212.6 7.17,52.36 14.33,104.71 21.5,157.06 -48.24,-17.88 -85.71,-32.08 -135.91,-43.41 -33.18,39.83 -48.74,66.74 -74.6,111.72 -161.59,41.79 -243.3,102.06 -343.89,247.71zm767.43 -441.14l-77.75 77.24 -47.41 -16.6c15.08,-47.07 18.95,-97.74 23.87,-145.81 46.63,25.89 67.35,36.61 101.29,85.17zm-169.42 216.41c-6.74,5.96 -13.48,11.92 -20.22,17.88 -62.14,-28.39 -97.78,-41.2 -163.73,-58.74 6.74,-13.19 13.48,-26.38 20.23,-39.58 77.92,24.04 110.43,18.93 163.72,80.44zm320.5 159.6c-18.93,-66.9 -8.38,-65.1 -50.57,-144.91l126.43 49.8c-41.74,30.29 -48.36,50.1 -75.86,95.11z"/>
   <path class="fil1" d="M4865.63 1589.4l73.53 -349.55c8.05,-38.29 -18.72,-64.64 -65.8,-64.64l-162.47 0 21.85 -103.93 -156.93 0 -108.98 518.12 156.94 0 75.08 -356.96 84.93 0 -75.08 356.96 156.93 0zm-453.73 0l12.03 -57.23 -153.24 0 63.04 -299.73 153.25 0 12.04 -57.23 -230.79 0c-47.09,0 -84.94,26.35 -92.99,64.64l-73.53 349.55 310.19 0zm-510.02 -57.23l-84.92 0 38.81 -184.51 84.92 0 -38.81 184.51zm144.9 57.23l73.53 -349.55c8.05,-38.29 -18.71,-64.64 -65.8,-64.64l-240.94 0 -12.04 57.23 163.4 0 -12.04 57.23 -162.47 0c-47.09,0 -84.94,26.36 -92.99,64.65l-36.23 172.19c-3.34,15.9 0.24,30.97 10.37,43.59 10.13,12.63 23.98,19.3 40.07,19.3l335.14 0zm-455.58 0l73.53 -349.55c8.05,-38.29 -18.72,-64.64 -65.8,-64.64l-162.47 0 21.85 -103.93 -156.93 0 -108.98 518.12 156.94 0 75.08 -356.96 84.92 0 -75.08 356.96 156.94 0zm-600.48 -57.23l-84.93 0 63.05 -299.73 84.93 0 -63.05 299.73zm144.9 57.23l73.52 -349.55c8.06,-38.29 -18.7,-64.64 -65.79,-64.64l-319.41 0 -108.99 518.11 156.94 0 21.87 -103.92 241.86 0zm-600.48 -57.23l-84.93 0 63.04 -299.73 84.94 0 -63.05 299.73zm153.57 15.98l64.85 -308.3c8.06,-38.29 -18.7,-64.64 -65.79,-64.64l-240.03 0c-47.08,0 -84.93,26.35 -92.98,64.64l-60.3 286.66c-3.34,15.9 0.24,30.97 10.37,43.59 10.12,12.63 23.97,19.3 40.06,19.3l293.39 0c24.62,0 45.32,-16.94 50.43,-41.25zm-464.25 41.25l73.52 -349.55c8.05,-38.29 -18.71,-64.64 -65.79,-64.64l-162.48 0 21.86 -103.93 -156.94 0 -108.98 518.12 156.94 0 75.08 -356.96 84.93 0 -75.08 356.96 156.94 0zm-455.58 0l73.52 -349.55c8.05,-38.29 -18.71,-64.64 -65.79,-64.64l-319.42 0 -87.12 414.19 156.93 0 75.09 -356.96 84.93 0 -75.08 356.96 156.94 0zm-576.25 -172.46l-84.93 0 38.81 -184.5 84.93 0 -38.81 184.5zm120.66 172.46l12.04 -57.23 -241.87 0 11.88 -56.48 241.87 0 49.61 -235.84c8.05,-38.29 -18.72,-64.64 -65.79,-64.64l-240.03 0c-47.08,0 -84.94,26.35 -92.99,64.64l-60.3 286.66c-3.34,15.9 0.24,30.97 10.37,43.59 10.13,12.63 23.97,19.3 40.07,19.3l335.14 0zm-455.58 0l73.53 -349.55c8.05,-38.29 -18.72,-64.64 -65.8,-64.64l-162.47 0 21.85 -103.93 -156.93 0 -108.98 518.12 156.93 0 75.09 -356.96 84.92 0 -75.08 356.96 156.94 0zm-455.58 0l73.53 -349.55c8.05,-38.29 -18.72,-64.64 -65.8,-64.64l-319.41 0 -87.12 414.19 156.93 0 75.09 -356.96 84.93 0 -75.09 356.96 156.94 0z"/>
  </g>
 </g>
</svg>
